{"title":"The.Biography.Channel.Mike.Tyson.Fallen.Champ.1993.iNTERNAL.DVDR","uid":5980571,"size":728312458,"categoryP":"video","categoryS":"movies","magnet":"?xt=urn:btih:69372fe71bc08e632b12e87d60b4a6f5ceaace59&amp;dn=The.Biography.Channel.Mike.Tyson.Fallen.Champ.1993.iNTERNAL.DVDR&amp;tr=udp%3A%2F%2Ftracker.openbittorrent.com%3A80&amp;tr=udp%3A%2F%2Fopen.demonii.com%3A1337&amp;tr=udp%3A%2F%2Ftracker.coppersurfer.tk%3A6969&amp;tr=udp%3A%2F%2Fexodus.desync.com%3A6969","seeders":1,"leechers":1,"uploader":"TvTeam","files":4,"time":1290581176,"description":". \n  &lt;a href=&quot;\nhttp://www.torrentday.com/&quot; rel=&quot;nofollow&quot; target=&quot;_NEW&quot;&gt;\nhttp://www.torrentday.com/&lt;/a&gt;        :     The Hottest Private Tracker On The Net!!!\n\n\n               www . TorrentDay . Com \n(((((((((((((= Enjoy No RAR releases =))))))))))))))))))))\n\n\n...................................NFO:....................................\n\n.                                                                                                     \n       \n     \n     \n       \n       \n     \n     \n                                         \n                                         \n                EXVID                    \n                                         \n         \n                                         \n         Filled the Archives             \n                                         \n         \n                                         \n                With:                    \n                                         \n         \n                                         \n                                    \n     E240                           \n                                    \n     SP               (C) 2009      \n                                         \n     \n     \n     \n                                                                                  \n                                                                                   \n The.Biography.Channel.Mike.Tyson.Fallen.Champ.1993.iNTERNAL.DVDRip.XviD-EXViDiNT    \n                                                                                   \n                                                                                  \n     \n                                                                                               \nEXViD aims to iNTERNAL those releases which have been lost in the archives.\nEXViD aims to PRE non-internal releases which have poor sources and are likely skipped by others. &lt;a href=&quot;\nhttp://www.imdb.com/title/tt0106855/&quot; rel=&quot;nofollow&quot; target=&quot;_NEW&quot;&gt;\nhttp://www.imdb.com/title/tt0106855/&lt;/a&gt;\nSubtitles: None\nDate: 2010.11\n\nDirector:\nBarbara Kopple\n\nGenres:\nDocumentary \n\nOnce the dominant force in heavyweight boxing, Mike Tyson used his fury inside the ring to \npummel opponents; sadly, that anger outside the ring led to his undoing. Through interviews \nwith Tyson's boyhood pals, sportswriters and others, this A&amp;E documentary profiles the champ's \nknockout career and turbulent personal life -- including the rape conviction that sent him to \nprison. The film also looks at Tyson's efforts to rebuild his life.\n\nCast\nCast overview, first billed only:\nCurtis Ratliff \tCurtis Ratliff \t... \t\nHimself - friend\nTracy Trey Travis \tTracy Trey Travis \t... \t\nHimself - friend\nErnestine Coleman \tErnestine Coleman \t... \t\nHerself - Tyson's case worker\nBubby Stewart \tBubby Stewart \t... \t\nHimself - Tryon Youth supervisor\nAl Braverman \tAl Braverman \t... \t\nHimself - Promoter\nJerry Izenberg \tJerry Izenberg \t... \t\nHimself\nCamille Ewald \tCamille Ewald \t... \t\nHerself\nFrank Mincieli \tFrank Mincieli \t... \t\nHimself - former roommate\nLennie Daniels \tLennie Daniels \t... \t\nHimself\nMatt Beranski \tMatt Beranski \t... \t\nHimself - Tysons cornerman\nRobert Lipsyte \tRobert Lipsyte \t... \t\nHimself - sports writer\nNadia Hujtyn \tNadia Hujtyn \t... \t\nHerself - trainer\nHolly Jackson \tHolly Jackson \t... \t\nHerself - former girlfriend\nKimberly Heath \tKimberly Heath \t... \t\nHerself - friend\nBob Meo \tBob Meo \t... \t\nHimself - barber\nFull cast and crew  \n\n\n\nStats:\nGeneral\nFormat                           : AVI\nFormat/Info                      : Audio Video Interleave\nFile size                        : 695 MiB\nDuration                         : 46mn 25s\nOverall bit rate                 : 2 092 Kbps\nWriting application              : VirtualDubMod 1.5.10.2 (build 2542/release)\nWriting library                  : VirtualDubMod build 2542/release\n\nVideo\nID                               : 0\nFormat                           : MPEG-4 Visual\nFormat profile                   : Advanced Simple@L5\nFormat settings, BVOP            : Yes\nFormat settings, QPel            : No\nFormat settings, GMC             : No warppoints\nFormat settings, Matrix          : Default (H.263)\nCodec ID                         : XVID\nCodec ID/Hint                    : XviD\nDuration                         : 46mn 25s\nBit rate                         : 1 888 Kbps\nWidth                            : 640 pixels\nHeight                           : 480 pixels\nDisplay aspect ratio             : 4:3\nFrame rate                       : 29.970 fps\nResolution                       : 8 bits\nColorimetry                      : 4:2:0\nScan type                        : Progressive\nBits/(Pixel*Frame)               : 0.205\nStream size                      : 627 MiB (90%)\nWriting library                  : XviD 1.2.1 (UTC 2008-12-04)\n\nAudio\nID                               : 1\nFormat                           : AC-3\nFormat/Info                      : Audio Coding 3\nFormat_Settings_ModeExtension    : CM (complete main)\nCodec ID                         : 2000\nDuration                         : 46mn 25s\nBit rate mode                    : Constant\nBit rate                         : 192 Kbps\nChannel(s)                       : 2 channels\nChannel positions                : Front: L R\nSampling rate                    : 48.0 KHz\nStream size                      : 63.7 MiB (9%)\nAlignment                        : Split accross interleaves\nInterleave, duration             : 33 ms (1.00 video frame)\nInterleave, preload duration     : 500 ms\n\nRelease notes:\nenjoy!\n\nLooking for:\n75TB+ Archives\n                                                                                                    \nGreets: CRBS EPiSODE FiCO FLS iLS KLASSiGER LiPSYNC MADE NODLABS RUNNER TNAN       \n   \n\n                                                                    ASCII DONE BY XX^NFO 2oo9","torrent":{"xt":"urn:btih:69372fe71bc08e632b12e87d60b4a6f5ceaace59","amp;dn":"The.Biography.Channel.Mike.Tyson.Fallen.Champ.1993.iNTERNAL.DVDR","amp;tr":["udp%3A%2F%2Ftracker.openbittorrent.com%3A80","udp%3A%2F%2Fopen.demonii.com%3A1337","udp%3A%2F%2Ftracker.coppersurfer.tk%3A6969","udp%3A%2F%2Fexodus.desync.com%3A6969"],"infoHash":"69372fe71bc08e632b12e87d60b4a6f5ceaace59","infoHashBuffer":{"type":"Buffer","data":[105,55,47,231,27,192,142,99,43,18,232,125,96,180,166,245,206,170,206,89]},"announce":[],"urlList":[]}}